<?xml version="1.0" encoding="UTF-8"?>
<svg width="480px" height="130px" viewBox="0 0 480 130" version="1.1" xmlns="http://www.w3.org/2000/svg" xmlns:xlink="http://www.w3.org/1999/xlink">
    <!-- Generator: Sketch 52.2 (67145) - http://www.bohemiancoding.com/sketch -->
    <title>login_card_head_bg</title>
    <desc>Created with Sketch.</desc>
    <defs>
        <path d="M4,-1.42108547e-14 L476,-1.42108547e-14 C478.209139,1.67770864e-14 480,1.790861 480,4 L480,130 L0,130 L0,4 C-2.705415e-16,1.790861 1.790861,-1.38050425e-14 4,-1.42108547e-14 Z" id="path-1"></path>
        <filter x="-0.1%" y="-0.4%" width="100.2%" height="101.5%" filterUnits="objectBoundingBox" id="filter-3">
            <feOffset dx="0" dy="1" in="SourceAlpha" result="shadowOffsetOuter1"></feOffset>
            <feColorMatrix values="0 0 0 0 0.934311224   0 0 0 0 0.934311224   0 0 0 0 0.934311224  0 0 0 1 0" type="matrix" in="shadowOffsetOuter1"></feColorMatrix>
        </filter>
        <linearGradient x1="60.4583525%" y1="3.10035842%" x2="60.4583525%" y2="42.5203649%" id="linearGradient-4">
            <stop stop-color="#5693FF" offset="0%"></stop>
            <stop stop-color="#0D1437" offset="100%"></stop>
        </linearGradient>
        <path d="M226.451172,1 C253.393989,0.936197917 278.937435,5.99479167 303.08151,16.1757812 C319.756049,23.2070426 329.395279,41.5507813 316.696061,71.7753906 C303.996842,102 358.485807,106.765625 358.485807,139.757812 C358.485807,179.208333 328.731901,212.877604 269.224088,240.765625 L-4.13569622e-13,185.822266 L-4.54747351e-13,1.92570308 L226.451172,1 Z" id="path-5"></path>
        <linearGradient x1="53.4901495%" y1="66.7891668%" x2="53.4901495%" y2="4.99514043%" id="linearGradient-7">
            <stop stop-color="#2D3D84" offset="0%"></stop>
            <stop stop-color="#28356D" offset="100%"></stop>
        </linearGradient>
        <linearGradient x1="50%" y1="26.0402514%" x2="50%" y2="100%" id="linearGradient-8">
            <stop stop-color="#FFFFFF" stop-opacity="0" offset="0%"></stop>
            <stop stop-color="#FFFFFF" offset="100%"></stop>
        </linearGradient>
        <linearGradient x1="50%" y1="0%" x2="50%" y2="100%" id="linearGradient-9">
            <stop stop-color="#FFFFFF" stop-opacity="0" offset="0%"></stop>
            <stop stop-color="#FFFFFF" offset="100%"></stop>
        </linearGradient>
        <linearGradient x1="50%" y1="15.0537583%" x2="50%" y2="100%" id="linearGradient-10">
            <stop stop-color="#FFFFFF" stop-opacity="0" offset="0%"></stop>
            <stop stop-color="#FFFFFF" offset="100%"></stop>
        </linearGradient>
        <linearGradient x1="50%" y1="0%" x2="50%" y2="75.6167682%" id="linearGradient-11">
            <stop stop-color="#FFFFFF" offset="0%"></stop>
            <stop stop-color="#C6DAEB" offset="100%"></stop>
        </linearGradient>
        <path d="M2.49717957,27.9876299 L68.4971796,1.23087315 C70.5444754,0.400888341 72.8769723,1.38771393 73.7069571,3.43500979 C73.9004964,3.9124069 74,4.42269384 74,4.93783022 L74,78.305413 C74,79.934249 73.0123267,81.4004081 71.5028204,82.0123701 L5.50282043,108.769127 C3.45552458,109.599112 1.12302774,108.612286 0.293042927,106.56499 C0.0995035573,106.087593 -6.15416293e-15,105.577306 -6.21724894e-15,105.06217 L-4.4408921e-15,31.694587 C-6.08706397e-15,30.065751 0.98767328,28.5995919 2.49717957,27.9876299 Z" id="path-12"></path>
        <linearGradient x1="18.5012405%" y1="102.808821%" x2="18.5012405%" y2="64.2763096%" id="linearGradient-14">
            <stop stop-color="#DCE6EB" offset="0%"></stop>
            <stop stop-color="#CAD8DE" offset="100%"></stop>
        </linearGradient>
        <rect id="path-15" x="1.84741111e-13" y="2.22044605e-14" width="1.59139785" height="11.2"></rect>
        <polygon id="path-17" points="9.4499748 3.04921875 0.440860215 4.9921875 0.440860215 5.7453125 8.94294985 4.39726563 5.37318338 11.2173828 5.37318338 11.9945313 6.06106666 11.9945313 10.7944651 4.39726563 20.8341419 6.3515625 20.8341419 5.7453125 11.6822444 3.22705078 15.6801653 0.343945313 15.6801653 1.0658141e-14 14.9525553 1.0658141e-14"></polygon>
        <linearGradient x1="0%" y1="59.0676459%" x2="100%" y2="30.8883302%" id="linearGradient-19">
            <stop stop-color="#60B2FE" offset="0%"></stop>
            <stop stop-color="#5693FF" offset="100%"></stop>
        </linearGradient>
        <linearGradient x1="100%" y1="6.93486679%" x2="3.56497816%" y2="86.8812576%" id="linearGradient-20">
            <stop stop-color="#C7DBEC" offset="0%"></stop>
            <stop stop-color="#D4E3F0" offset="100%"></stop>
        </linearGradient>
        <polygon id="path-21" points="-9.09494702e-13 4.44444444 11 -5.70153492e-14 11 55.1111111 -9.09494702e-13 59.5555556"></polygon>
        <polygon id="path-23" points="-9.09494702e-13 4.44444444 11 -5.70153492e-14 11 35.1111111 -9.09494702e-13 39.5555556"></polygon>
        <polygon id="path-25" points="-9.09494702e-13 4.44444444 11 -5.70153492e-14 11 19.1111111 -9.09494702e-13 23.5555556"></polygon>
    </defs>
    <g id="登录" stroke="none" stroke-width="1" fill="none" fill-rule="evenodd">
        <g id="1-登录" transform="translate(-720.000000, -295.000000)">
            <g id="login" transform="translate(720.000000, 295.000000)">
                <g id="login_card_head_bg">
                    <g>
                        <mask id="mask-2" fill="white">
                            <use xlink:href="#path-1"></use>
                        </mask>
                        <g id="Mask">
                            <use fill="black" fill-opacity="1" filter="url(#filter-3)" xlink:href="#path-1"></use>
                            <use fill="#262858" fill-rule="evenodd" xlink:href="#path-1"></use>
                        </g>
                        <circle id="椭圆形" stroke="#2D3D84" stroke-width="30" opacity="0.200000003" mask="url(#mask-2)" cx="-13" cy="3" r="37"></circle>
                        <circle id="椭圆形-copy-11" stroke="#2D3D84" stroke-width="14" opacity="0.400000006" mask="url(#mask-2)" cx="101.5" cy="134.5" r="22.5"></circle>
                        <g id="Group" opacity="0.4" mask="url(#mask-2)">
                            <g transform="translate(235.000000, -49.000000)">
                                <path d="M230.451172,30 C256.418272,33.0019531 279.85039,39.0019531 300.747526,48 C317.141854,55.0591942 329.291471,69.0869141 314.696061,100.775391 C300.10065,132.463867 343.485807,143.362898 343.485807,160.992187 C343.485807,180.609375 320.065234,216.867187 273.224088,269.765625 L4,214.822266 L4,30.9257031 L230.451172,30 Z" id="路径-2" stroke="none" fill="url(#linearGradient-4)" fill-rule="evenodd" transform="translate(173.742903, 149.882812) scale(-1, 1) translate(-173.742903, -149.882812) "></path>
                                <g id="矩形-copy-6" stroke="none" stroke-width="1" fill="none" fill-rule="evenodd" transform="translate(0.000000, 29.000000)">
                                    <mask id="mask-6" fill="white">
                                        <use xlink:href="#path-5"></use>
                                    </mask>
                                    <use id="Mask" fill="#2D3D84" transform="translate(179.242903, 120.882514) scale(-1, 1) translate(-179.242903, -120.882514) " xlink:href="#path-5"></use>
                                    <path d="M-10.4575974,64.1456667 L73.5424026,31.2761014 C75.5996473,30.4710926 77.9199623,31.4862304 78.7249711,33.5434752 C78.9067202,34.007945 79,34.5023092 79,35.0010726 L79,98.4104019 C79,100.056994 77.9909747,101.535356 76.4575974,102.135373 L-7.54240261,135.004938 C-9.59964735,135.809947 -11.9199623,134.794809 -12.7249711,132.737565 C-12.9067202,132.273095 -13,131.778731 -13,131.279967 L-13,67.8706378 C-13,66.2240453 -11.9909747,64.7456839 -10.4575974,64.1456667 Z" fill="url(#linearGradient-7)" mask="url(#mask-6)"></path>
                                </g>
                                <path d="M104.184413,146.880136 L154.810454,125.731731 C155.298938,125.527673 155.848399,125.52561 156.338402,125.725994 L203.462942,144.997312 C204.485325,145.41541 204.975195,146.583151 204.557097,147.605535 C204.353457,148.1035 203.957785,148.498424 203.459435,148.70112 L152.442653,169.451471 C151.96111,169.647332 151.422227,169.648 150.9402,169.453336 L104.206402,150.580071 C103.182199,150.166451 102.687224,149.000864 103.100844,147.976661 C103.300997,147.481044 103.69121,147.086166 104.184413,146.880136 Z" id="矩形-copy-19" stroke="none" fill="#1D2654" fill-rule="evenodd"></path>
                                <path d="M25.644266,165.186712 L93.8177207,138.104107 C94.3713613,137.884167 94.9942289,137.922482 95.5167393,138.208618 L132.961582,158.714127 C133.930396,159.244668 134.285686,160.460135 133.755145,161.428949 C133.531441,161.837452 133.172183,162.155074 132.739342,162.327024 L64.5658874,189.409629 C64.0122469,189.629569 63.3893792,189.591254 62.8668689,189.305118 L25.4220261,168.799609 C24.4532123,168.269068 24.0979219,167.053601 24.6284628,166.084787 C24.8521667,165.676284 25.2114252,165.358662 25.644266,165.186712 Z" id="矩形" stroke="none" fill="#1D2654" fill-rule="evenodd"></path>
                                <path d="M104,180.2 L94.9223633,175.215332" id="直线-2" stroke="#1D2654" stroke-width="1" fill="none" stroke-linecap="square"></path>
                                <path d="M127.282715,180.2 L109.312012,169.043457" id="直线-2" stroke="#1D2654" stroke-width="1" fill="none" stroke-linecap="square"></path>
                                <path d="M212.596482,0.436115717 L289.596482,33.9537628 C291.056076,34.5891154 292,36.0294749 292,37.6213567 L292,110.89629 C292,113.105429 290.209139,114.89629 288,114.89629 C287.45066,114.89629 286.907207,114.783137 286.403518,114.563884 L209.403518,81.0462372 C207.943924,80.4108846 207,78.9705251 207,77.3786433 L207,4.10370962 C207,1.89457062 208.790861,0.103709623 211,0.103709623 C211.54934,0.103709623 212.092793,0.216862712 212.596482,0.436115717 Z" id="矩形" stroke="none" fill="#28356D" fill-rule="evenodd"></path>
                                <path d="M237.594904,125.432567 L321.594904,161.954306 C323.055344,162.58928 324,164.03008 324,165.622587 L324,248.899153 C324,251.108292 322.209139,252.899153 320,252.899153 C319.451239,252.899153 318.908348,252.786238 318.405096,252.567433 L234.405096,216.045694 C232.944656,215.41072 232,213.96992 232,212.377413 L232,129.100847 C232,126.891708 233.790861,125.100847 236,125.100847 C236.548761,125.100847 237.091652,125.213762 237.594904,125.432567 Z" id="矩形-copy-4" stroke="none" fill="#28356D" fill-rule="evenodd"></path>
                                <path d="M222.594904,141.432567 L306.594904,177.954306 C308.055344,178.58928 309,180.03008 309,181.622587 L309,264.899153 C309,267.108292 307.209139,268.899153 305,268.899153 C304.451239,268.899153 303.908348,268.786238 303.405096,268.567433 L219.405096,232.045694 C217.944656,231.41072 217,229.96992 217,228.377413 L217,145.100847 C217,142.891708 218.790861,141.100847 221,141.100847 C221.548761,141.100847 222.091652,141.213762 222.594904,141.432567 Z" id="矩形-copy-5" stroke="none" fill="#599BFF" fill-rule="evenodd" opacity="0.400000006"></path>
                                <polygon id="矩形" stroke="none" fill="url(#linearGradient-8)" fill-rule="evenodd" points="217 66 218 66 218 102 217 102"></polygon>
                                <polygon id="矩形-copy-2" stroke="none" fill="url(#linearGradient-9)" fill-rule="evenodd" opacity="0.100000001" points="191.5 59 192.5 59 192.5 75 191.5 75"></polygon>
                                <path d="M98.5,79 L98.5,46" id="直线-copy" stroke="url(#linearGradient-9)" stroke-width="1" fill="none" opacity="0.900000036" stroke-linecap="square" stroke-dasharray="3"></path>
                                <path d="M116.5,110.933333 L116.5,62" id="直线-copy" stroke="url(#linearGradient-9)" stroke-width="1" fill="none" opacity="0.900000036" stroke-linecap="square" stroke-dasharray="3"></path>
                                <path d="M48.5,130.933333 L48.5,82" id="直线-copy" stroke="url(#linearGradient-9)" stroke-width="1" fill="none" opacity="0.900000036" stroke-linecap="square"></path>
                                <path d="M239.5,158.933333 L239.5,104" id="直线" stroke="url(#linearGradient-10)" stroke-width="1" fill="none" opacity="0.400000006" stroke-linecap="square" stroke-dasharray="3"></path>
                                <circle id="椭圆形" stroke="none" fill="#FFFFFF" fill-rule="evenodd" cx="209" cy="97" r="1"></circle>
                                <circle id="椭圆形-copy-3" stroke="none" fill="#FFFFFF" fill-rule="evenodd" opacity="0.400000006" cx="199" cy="72" r="1"></circle>
                                <circle id="椭圆形-copy-4" stroke="none" fill="#FFFFFF" fill-rule="evenodd" opacity="0.5" cx="90" cy="72" r="1"></circle>
                                <circle id="椭圆形-copy-5" stroke="none" fill="#FFFFFF" fill-rule="evenodd" opacity="0.800000012" cx="42.5" cy="128.5" r="1"></circle>
                                <circle id="椭圆形-copy-6" stroke="none" fill="#FFFFFF" fill-rule="evenodd" opacity="0.800000012" cx="60.5" cy="132.5" r="1"></circle>
                                <g id="分组-5" stroke="none" stroke-width="1" fill="none" fill-rule="evenodd" transform="translate(111.000000, 32.000000)">
                                    <path d="M2.5405052,26.1417088 L68.5405052,0.276843925 C70.5973396,-0.529212793 72.9181714,0.484742845 73.7242281,2.54157723 C73.9064637,3.00659232 74,3.50162346 74,4.00107203 L74,77.4427252 C74,79.0715612 73.0123267,80.5377203 71.5028204,81.1496823 L5.50282043,107.906439 C3.45552458,108.736424 1.12302774,107.749598 0.293042927,105.702302 C0.0995035573,105.224905 -1.45918579e-14,104.714618 -1.46549439e-14,104.199482 L2.66453526e-15,29.8659369 C5.38659115e-15,28.2200884 1.00812642,26.7422356 2.5405052,26.1417088 Z" id="矩形" fill="url(#linearGradient-11)"></path>
                                    <g id="矩形" transform="translate(3.000000, 0.000000)">
                                        <mask id="mask-13" fill="white">
                                            <use xlink:href="#path-12"></use>
                                        </mask>
                                        <use id="Mask" fill="#FFFFFF" xlink:href="#path-12"></use>
                                        <path d="M2.49717957,27.9876299 L68.4971796,1.23087315 C70.5444754,0.400888341 72.8769723,1.38771393 73.7069571,3.43500979 C73.9004964,3.9124069 74,4.42269384 74,4.93783022 L74,6 L0,36 L1.77635684e-15,31.694587 C1.57688196e-15,30.065751 0.98767328,28.5995919 2.49717957,27.9876299 Z" fill="url(#linearGradient-14)" mask="url(#mask-13)"></path>
                                        <path d="M40.9809953,14.4463104 L64.2074812,4.87009585 C64.7201362,4.65872964 65.3070714,4.90297247 65.5184376,5.41562747 C65.5684853,5.53701485 65.5942383,5.66703993 65.5942383,5.79833984 L65.5942383,5.79833984 C65.5942383,6.70604929 65.0466629,7.52410363 64.2074812,7.87009585 L40.9809953,17.4463104 C40.4683403,17.6576766 39.8814052,17.4134338 39.6700389,16.9007788 C39.6199913,16.7793914 39.5942383,16.6493663 39.5942383,16.5180664 L39.5942383,16.5180664 C39.5942383,15.610357 40.1418137,14.7923026 40.9809953,14.4463104 Z" fill="#FFFFFF" mask="url(#mask-13)"></path>
                                        <path d="M18.9869533,23.4609804 L36.2015232,16.5751524 C36.7222803,16.3668496 37.3133,16.6201438 37.5216028,17.1409008 C37.5695856,17.2608578 37.5942383,17.3888688 37.5942383,17.5180664 L37.5942383,17.5180664 C37.5942383,18.4240147 37.0426752,19.2386917 36.2015232,19.5751524 L18.9869533,26.4609804 C18.4661963,26.6692832 17.8751765,26.415989 17.6668737,25.895232 C17.6188909,25.775275 17.5942383,25.647264 17.5942383,25.5180664 L17.5942383,25.5180664 C17.5942383,24.6121181 18.1458014,23.7974412 18.9869533,23.4609804 Z" id="矩形-copy-20" fill="#FFFFFF" mask="url(#mask-13)"></path>
                                        <ellipse id="椭圆形" fill="#FFFFFF" mask="url(#mask-13)" transform="translate(4.354154, 30.707708) rotate(-345.000000) translate(-4.354154, -30.707708) " cx="4.35415439" cy="30.7077078" rx="1" ry="1.5"></ellipse>
                                        <ellipse id="椭圆形-copy-7" fill="#FFFFFF" mask="url(#mask-13)" transform="translate(7.354154, 29.707708) rotate(-345.000000) translate(-7.354154, -29.707708) " cx="7.35415439" cy="29.7077078" rx="1" ry="1.5"></ellipse>
                                        <ellipse id="椭圆形-copy-8" fill="#FFFFFF" mask="url(#mask-13)" transform="translate(10.354154, 28.707708) rotate(-345.000000) translate(-10.354154, -28.707708) " cx="10.3541544" cy="28.7077078" rx="1" ry="1.5"></ellipse>
                                    </g>
                                    <g id="分组-4" transform="translate(8.000000, 36.000000)">
                                        <path d="M1.26830863,5.79098256 L13.2683086,1.07381948 C14.2963044,0.669717489 15.4572491,1.17548335 15.8613511,2.20347915 C15.9529685,2.43654499 16,2.68474401 16,2.93517053 L16,25.6372172 C16,26.4593791 15.4968573,27.1977838 14.7316914,27.4985682 L2.73169137,32.2157313 C1.70369557,32.6198333 0.542750935,32.1140674 0.138648949,31.0860716 C0.0470314869,30.8530058 -1.97313014e-14,30.6048068 -1.97619698e-14,30.3543803 L-1.86517468e-14,7.65233361 C-1.87524326e-14,6.83017172 0.503142677,6.09176694 1.26830863,5.79098256 Z" id="矩形" fill="#E9EFF2"></path>
                                        <path d="M2.12107288,7.3071604 L13.3161412,3.09940384 C13.8331156,2.90509488 14.4097246,3.16666684 14.6040336,3.68364119 C14.6463108,3.79612311 14.6679688,3.91530403 14.6679688,4.03546869 L14.6679687,14.8988646 C14.6679687,15.315434 14.4097322,15.6883689 14.0197963,15.8349294 L2.8247279,20.042686 C2.30775356,20.236995 1.73114451,19.975423 1.53683554,19.4584487 C1.49455831,19.3459667 1.47290039,19.2267858 1.47290039,19.1066211 L1.47290039,8.24322525 C1.47290039,7.82665586 1.73113692,7.45372097 2.12107288,7.3071604 Z" id="矩形" fill="#FFFFFF"></path>
                                        <path d="M1.81917701,22.2811867 L14.1077123,17.8720479 C14.3311195,17.7918892 14.5772083,17.9080151 14.657367,18.1314223 C14.674075,18.1779884 14.6826172,18.2270897 14.6826172,18.2765625 L14.6826172,18.5355436 C14.6826172,18.7465808 14.5501154,18.9348953 14.3514773,19.0061668 L2.06294204,23.4153056 C1.83953483,23.4954643 1.593446,23.3793385 1.51328727,23.1559312 C1.49657931,23.1093651 1.48803711,23.0602638 1.48803711,23.010791 L1.48803711,22.7518099 C1.48803711,22.5407727 1.62053891,22.3524582 1.81917701,22.2811867 Z" id="矩形-copy-21" fill="#FFFFFF"></path>
                                        <path d="M1.95384598,24.7181452 L8.42698762,22.2986207 C8.64187224,22.2183013 8.88118235,22.327388 8.96150171,22.5422727 C8.9788883,22.5887884 8.98779297,22.6380449 8.98779297,22.6877037 L8.98779297,22.9395074 C8.98779297,23.1481256 8.8582669,23.3348182 8.66285324,23.4078597 L2.1897116,25.8273842 C1.97482698,25.9077036 1.73551687,25.7986169 1.65519751,25.5837323 C1.63781092,25.5372166 1.62890625,25.4879601 1.62890625,25.4383012 L1.62890625,25.1864976 C1.62890625,24.9778793 1.75843232,24.7911868 1.95384598,24.7181452 Z" id="矩形-copy-22" fill="#FFFFFF"></path>
                                    </g>
                                    <path d="M28.2385004,34.50411 L58.2385004,22.1511688 C59.2598716,21.7306042 60.4287916,22.2176542 60.8493562,23.2390254 C60.9488216,23.4805843 61,23.7392894 61,24.000525 L61,33.6746953 C61,34.4851431 60.5109029,35.2154737 59.7614996,35.5240515 L29.7614996,47.8769927 C28.7401284,48.2975573 27.5712084,47.8105073 27.1506438,46.7891361 C27.0511784,46.5475773 27,46.2888721 27,46.0276365 L27,36.3534662 C27,35.5430185 27.4890971,34.8126878 28.2385004,34.50411 Z" id="矩形" fill="#E9EFF2"></path>
                                    <path d="M29.3143047,36.8742781 L58.5357617,25.1856953 C58.7093473,25.1162611 58.9063539,25.2006925 58.9757882,25.3742781 C58.9917824,25.4142638 59,25.4569341 59,25.5 L59,25.6614835 C59,25.8659358 58.8755245,26.0497902 58.6856953,26.1257219 L29.4642383,37.8143047 C29.2906527,37.8837389 29.0936461,37.7993075 29.0242118,37.6257219 C29.0082176,37.5857362 29,37.5430659 29,37.5 L29,37.3385165 C29,37.1340642 29.1244755,36.9502098 29.3143047,36.8742781 Z" id="矩形" fill="#FFFFFF"></path>
                                    <path d="M29.3143047,39.8742781 L58.5357617,28.1856953 C58.7093473,28.1162611 58.9063539,28.2006925 58.9757882,28.3742781 C58.9917824,28.4142638 59,28.4569341 59,28.5 L59,28.6614835 C59,28.8659358 58.8755245,29.0497902 58.6856953,29.1257219 L29.4642383,40.8143047 C29.2906527,40.8837389 29.0936461,40.7993075 29.0242118,40.6257219 C29.0082176,40.5857362 29,40.5430659 29,40.5 L29,40.3385165 C29,40.1340642 29.1244755,39.9502098 29.3143047,39.8742781 Z" id="矩形" fill="#FFFFFF"></path>
                                    <path d="M29.3244383,42.8783356 L44.5318354,37.1755617 C44.7110177,37.1083684 44.9107447,37.1991533 44.977938,37.3783356 C44.9925271,37.4172397 45,37.4584505 45,37.5 L45,37.6534998 C45,37.861922 44.8707136,38.0484824 44.6755617,38.1216644 L29.4681646,43.8244383 C29.2889823,43.8916316 29.0892553,43.8008467 29.022062,43.6216644 C29.0074729,43.5827603 29,43.5415495 29,43.5 L29,43.3465002 C29,43.138078 29.1292864,42.9515176 29.3244383,42.8783356 Z" id="矩形" fill="#FFFFFF"></path>
                                    <path d="M28.2385004,51.50411 L58.2385004,39.1511688 C59.2598716,38.7306042 60.4287916,39.2176542 60.8493562,40.2390254 C60.9488216,40.4805843 61,40.7392894 61,41.000525 L61,69.6746953 C61,70.4851431 60.5109029,71.2154737 59.7614996,71.5240515 L29.7614996,83.8769927 C28.7401284,84.2975573 27.5712084,83.8105073 27.1506438,82.7891361 C27.0511784,82.5475773 27,82.2888721 27,82.0276365 L27,53.3534662 C27,52.5430185 27.4890971,51.8126878 28.2385004,51.50411 Z" id="矩形-copy-24" fill="#E9EFF2"></path>
                                    <path d="M29.6060807,53.7543319 L41.6060807,48.6114748 C42.1137105,48.3939191 42.7015894,48.6290707 42.919145,49.1367005 C42.9724923,49.2611773 43,49.395193 43,49.5306198 L43,56.3546846 C43,56.7547127 42.7616031,57.1162508 42.3939193,57.2738296 L30.3939193,62.4166868 C29.8862895,62.6342424 29.2984106,62.3990908 29.080855,61.891461 C29.0275077,61.7669842 29,61.6329685 29,61.4975418 L29,54.6734769 C29,54.2734488 29.2383969,53.9119107 29.6060807,53.7543319 Z" id="矩形-copy-24" fill="#FFFFFF"></path>
                                    <path d="M45.6060807,47.2239685 L57.6060807,42.0811114 C58.1137105,41.8635558 58.7015894,42.0987073 58.919145,42.6063371 C58.9724923,42.730814 59,42.8648296 59,43.0002564 L59,49.8243212 C59,50.2243494 58.7616031,50.5858875 58.3939193,50.7434663 L46.3939193,55.8863234 C45.8862895,56.103879 45.2984106,55.8687275 45.080855,55.3610977 C45.0275077,55.2366208 45,55.1026052 45,54.9671784 L45,48.1431136 C45,47.7430855 45.2383969,47.3815473 45.6060807,47.2239685 Z" id="矩形-copy-24" fill="#FFFFFF"></path>
                                    <path d="M29.3143047,64.8742781 L58.5357617,53.1856953 C58.7093473,53.1162611 58.9063539,53.2006925 58.9757882,53.3742781 C58.9917824,53.4142638 59,53.4569341 59,53.5 L59,53.6614835 C59,53.8659358 58.8755245,54.0497902 58.6856953,54.1257219 L29.4642383,65.8143047 C29.2906527,65.8837389 29.0936461,65.7993075 29.0242118,65.6257219 C29.0082176,65.5857362 29,65.5430659 29,65.5 L29,65.3385165 C29,65.1340642 29.1244755,64.9502098 29.3143047,64.8742781 Z" id="矩形" fill="#FFFFFF"></path>
                                    <path d="M29.3143047,67.8742781 L58.5357617,56.1856953 C58.7093473,56.1162611 58.9063539,56.2006925 58.9757882,56.3742781 C58.9917824,56.4142638 59,56.4569341 59,56.5 L59,56.6614835 C59,56.8659358 58.8755245,57.0497902 58.6856953,57.1257219 L29.4642383,68.8143047 C29.2906527,68.8837389 29.0936461,68.7993075 29.0242118,68.6257219 C29.0082176,68.5857362 29,68.5430659 29,68.5 L29,68.3385165 C29,68.1340642 29.1244755,67.9502098 29.3143047,67.8742781 Z" id="矩形" fill="#FFFFFF"></path>
                                    <path d="M29.3244383,70.8783356 L44.5318354,65.1755617 C44.7110177,65.1083684 44.9107447,65.1991533 44.977938,65.3783356 C44.9925271,65.4172397 45,65.4584505 45,65.5 L45,65.6534998 C45,65.861922 44.8707136,66.0484824 44.6755617,66.1216644 L29.4681646,71.8244383 C29.2889823,71.8916316 29.0892553,71.8008467 29.022062,71.6216644 C29.0074729,71.5827603 29,71.5415495 29,71.5 L29,71.3465002 C29,71.138078 29.1292864,70.9515176 29.3244383,70.8783356 Z" id="矩形" fill="#FFFFFF"></path>
                                    <path d="M46.4907905,64.2362482 L51.6895487,62.3661431 C51.8722204,62.3004322 52.0735742,62.3952476 52.1392851,62.5779193 C52.1530142,62.6160852 52.1600342,62.6563393 52.1600342,62.6968994 L52.1600342,62.8453941 C52.1600342,63.0562819 52.0277172,63.2444967 51.8292779,63.3158796 L46.6305196,65.1859846 C46.447848,65.2516955 46.2464941,65.1568801 46.1807832,64.9742085 C46.1670541,64.9360426 46.1600342,64.8957885 46.1600342,64.8552284 L46.1600342,64.7067337 C46.1600342,64.4958459 46.2923512,64.3076311 46.4907905,64.2362482 Z" id="矩形" fill="#FFFFFF"></path>
                                    <path d="M29.3328593,74.1980086 L58.5543163,62.5094258 C58.727902,62.4399915 58.9249086,62.5244229 58.9943429,62.6980086 C59.0103371,62.7379943 59.0185547,62.7806646 59.0185547,62.8237305 L59.0185547,62.985214 C59.0185547,63.1896663 58.8940792,63.3735207 58.70425,63.4494523 L29.482793,75.1380351 C29.3092074,75.2074694 29.1122008,75.123038 29.0427665,74.9494523 C29.0267722,74.9094667 29.0185547,74.8667963 29.0185547,74.8237305 L29.0185547,74.6622469 C29.0185547,74.4577947 29.1430302,74.2739403 29.3328593,74.1980086 Z" id="矩形" fill="#FFFFFF"></path>
                                    <path d="M29.3377985,77.1999481 L34.552371,75.1780706 C34.7286845,75.1097076 34.9270341,75.1972186 34.9953972,75.3735321 C35.0107027,75.4130064 35.0185547,75.4549768 35.0185547,75.4973145 L35.0185547,75.6549131 C35.0185547,75.8613029 34.891742,76.0464843 34.6993109,76.1210968 L29.4847383,78.1429743 C29.3084249,78.2113374 29.1100753,78.1238263 29.0417122,77.9475128 C29.0264066,77.9080386 29.0185547,77.8660681 29.0185547,77.8237305 L29.0185547,77.6661318 C29.0185547,77.459742 29.1453674,77.2745606 29.3377985,77.1999481 Z" id="矩形" fill="#FFFFFF"></path>
                                    <path d="M37.3192438,74.0451271 L42.5338163,72.0232496 C42.7101298,71.9548865 42.9084794,72.0423976 42.9768425,72.2187111 C42.9921481,72.2581853 43,72.3001558 43,72.3424934 L43,72.5000921 C43,72.7064819 42.8731873,72.8916633 42.6807562,72.9662757 L37.4661837,74.9881532 C37.2898702,75.0565163 37.0915206,74.9690052 37.0231575,74.7926917 C37.0078519,74.7532175 37,74.7112471 37,74.6689094 L37,74.5113108 C37,74.304921 37.1268127,74.1197396 37.3192438,74.0451271 Z" id="矩形" fill="#FFFFFF"></path>
                                    <path d="M45.3307563,70.8909499 L50.5295145,69.0208448 C50.7121862,68.9551339 50.91354,69.0499493 50.979251,69.2326209 C50.9929801,69.2707868 51,69.3110409 51,69.3516011 L51,69.5000957 C51,69.7109835 50.867683,69.8991983 50.6692437,69.9705812 L45.4704855,71.8406863 C45.2878138,71.9063972 45.08646,71.8115818 45.020749,71.6289101 C45.0070199,71.5907442 45,71.5504901 45,71.50993 L45,71.3614353 C45,71.1505475 45.132317,70.9623327 45.3307563,70.8909499 Z" id="矩形" fill="#FFFFFF"></path>
                                    <path d="M28.2385004,87.50411 L58.2385004,75.1511688 C59.2598716,74.7306042 60.4287916,75.2176542 60.8493562,76.2390254 C60.9488216,76.4805843 61,76.7392894 61,77.000525 L61,79.6746953 C61,80.4851431 60.5109029,81.2154737 59.7614996,81.5240515 L29.7614996,93.8769927 C28.7401284,94.2975573 27.5712084,93.8105073 27.1506438,92.7891361 C27.0511784,92.5475773 27,92.2888721 27,92.0276365 L27,89.3534662 C27,88.5430185 27.4890971,87.8126878 28.2385004,87.50411 Z" id="矩形-copy-25" fill="#E9EFF2"></path>
                                    <path d="M45.3143047,84.8742781 L74.5357617,73.1856953 C74.7093473,73.1162611 74.9063539,73.2006925 74.9757882,73.3742781 C74.9917824,73.4142638 75,73.4569341 75,73.5 L75,73.6614835 C75,73.8659358 74.8755245,74.0497902 74.6856953,74.1257219 L45.4642383,85.8143047 C45.2906527,85.8837389 45.0936461,85.7993075 45.0242118,85.6257219 C45.0082176,85.5857362 45,85.5430659 45,85.5 L45,85.3385165 C45,85.1340642 45.1244755,84.9502098 45.3143047,84.8742781 Z" id="矩形" fill="#FFFFFF"></path>
                                    <path d="M45.3143047,87.8742781 L74.5357617,76.1856953 C74.7093473,76.1162611 74.9063539,76.2006925 74.9757882,76.3742781 C74.9917824,76.4142638 75,76.4569341 75,76.5 L75,76.6614835 C75,76.8659358 74.8755245,77.0497902 74.6856953,77.1257219 L45.4642383,88.8143047 C45.2906527,88.8837389 45.0936461,88.7993075 45.0242118,88.6257219 C45.0082176,88.5857362 45,88.5430659 45,88.5 L45,88.3385165 C45,88.1340642 45.1244755,87.9502098 45.3143047,87.8742781 Z" id="矩形" fill="#FFFFFF"></path>
                                    <path d="M64.1877231,20.4726448 L69.1877231,18.2504226 C70.1970914,17.8018144 71.3790149,18.2564004 71.8276231,19.2657688 C71.9412755,19.5214868 72,19.798209 72,20.0780457 L72,29.7007756 C72,30.491153 71.534533,31.207396 70.8122769,31.5283987 L65.8122769,33.7506209 C64.8029086,34.199229 63.6209851,33.7446431 63.1723769,32.7352747 C63.0587245,32.4795567 63,32.2028345 63,31.9229978 L63,22.3002679 C63,21.5098905 63.465467,20.7936475 64.1877231,20.4726448 Z" id="矩形-copy-23" fill="#E9EFF2"></path>
                                </g>
                                <g id="分组-2" stroke="none" stroke-width="1" fill="none" fill-rule="evenodd" transform="translate(60.000000, 82.000000)">
                                    <polygon id="矩形-copy-9" fill="#99B8C6" points="0.795698925 85.4 72.4433751 57.4037109 73.6369235 57.8037109 73.6369235 58.6037109 73.6369235 60.6037109 1.61276672 90.1833008 0.795698925 89.5541016"></polygon>
                                    <g id="矩形-copy-18" transform="translate(40.000000, 74.000000)">
                                        <mask id="mask-16" fill="white">
                                            <use xlink:href="#path-15"></use>
                                        </mask>
                                        <use id="Mask" fill="#99B8C6" xlink:href="#path-15"></use>
                                        <polygon fill="#FFFFFF" mask="url(#mask-16)" points="0.463745117 1.43203125 2.59139785 0.6171875 2.59139785 11.2 0.463745117 12.0148438"></polygon>
                                    </g>
                                    <g id="路径-4" transform="translate(31.000000, 82.000000)">
                                        <mask id="mask-18" fill="white">
                                            <use xlink:href="#path-17"></use>
                                        </mask>
                                        <use id="Mask" fill="#FFFFFF" xlink:href="#path-17"></use>
                                        <polygon fill="#99B8C6" mask="url(#mask-18)" points="7 4.72463989 9.70275879 4 8.23535156 5.71673584"></polygon>
                                        <polygon fill="#99B8C6" mask="url(#mask-18)" points="9.71343994 6.14398193 12.7936401 4.79882812 10.6557312 4.16943359"></polygon>
                                        <polygon id="路径-4-copy" fill="#99B8C6" mask="url(#mask-18)" points="11 3.12542725 15.8091431 -0.0951538086 14.9435425 4.01484375"></polygon>
                                    </g>
                                    <polygon id="矩形" fill="#2079E2" points="1.59139785 32.0148438 73.2043011 4.4 73.2043011 58.7154297 1.59139785 86.0148438"></polygon>
                                    <polygon id="矩形-copy-11" fill="url(#linearGradient-19)" points="1.59139785 31.6148438 73.2043011 4 73.2043011 57.3154297 1.59139785 85.6148438"></polygon>
                                    <polygon id="矩形-copy-8" fill="url(#linearGradient-20)" points="0 27.8 72.8064516 1.13686838e-13 74 0.4 74 1.6 74 3.6 0.817067792 32.5833008 0 31.9541016"></polygon>
                                    <polygon id="矩形-copy-7" fill="#FFFFFF" points="0.795698925 28.6 74 0.4 74 4.4 0.795698925 32.6"></polygon>
                                    <polygon id="矩形-copy-10" fill="#FFFFFF" points="1.59139785 86.2 73.6406145 57.7833984 73.6406145 61.7833984 1.59139785 90.2"></polygon>
                                    <path d="M8.50277731,38.4170872 L20.0318096,34.5533035 C20.4507372,34.4129061 20.9041598,34.6386995 21.0445571,35.0576271 C21.0720186,35.1395686 21.0860215,35.2254184 21.0860215,35.3118391 L21.0860215,45.6243771 C21.0860215,45.9682443 20.8662778,46.2736438 20.5402334,46.3829128 L9.01120119,50.2466965 C8.59227353,50.3870939 8.138851,50.1613005 7.99845362,49.7423729 C7.97099216,49.6604314 7.95698925,49.5745816 7.95698925,49.4881609 L7.95698925,39.1756229 C7.95698925,38.8317557 8.17673296,38.5263562 8.50277731,38.4170872 Z" id="矩形" fill="#7CC7FF"></path>
                                    <ellipse id="椭圆形" stroke="#7AC3FF" stroke-width="3.2" transform="translate(37.659437, 47.339957) rotate(-345.000000) translate(-37.659437, -47.339957) " cx="37.6594371" cy="47.3399569" rx="11.1438409" ry="16.3941007"></ellipse>
                                    <path d="M26.5156172,47.3249059 C26.5277912,56.3791137 31.5269177,63.7257392 37.6814788,63.7340532 C43.8360398,63.7423672 48.8154284,56.4092213 48.8032544,47.3550134 C48.7910803,38.3008055 43.7919538,30.95418 37.6373928,30.945866" id="路径" stroke="#CBEAFE" stroke-width="3.2" stroke-linecap="round" transform="translate(37.659447, 47.339963) rotate(-345.000000) translate(-37.659447, -47.339963) "></path>
                                    <path d="M35.4514538,55.4046131 C32.3434572,54.5895794 30.8124759,50.3181945 32.0319113,45.8642079 C33.2513468,41.4102212 36.7594236,38.460267 39.8674203,39.2753006 C42.9754169,40.0903343 44.5063983,44.3617192 43.2869628,48.8157058 C42.0675274,53.2696925 38.5594505,56.2196467 35.4514538,55.4046131 Z" id="椭圆形" stroke="#7AC3FF" stroke-width="2.4"></path>
                                    <path d="M43.2714873,42.8897911 C43.8239165,44.5815876 43.8723425,46.6776074 43.2869628,48.8157058 C42.0675274,53.2696925 38.5594505,56.2196467 35.4514538,55.4046131 C32.3434572,54.5895794 30.8124759,50.3181945 32.0319113,45.8642079" id="路径" stroke="#CBEAFE" stroke-width="2.4" stroke-linecap="round"></path>
                                    <path d="M10.7916157,42.3924618 L12.2230136,41.806232 C12.2639002,41.7894869 12.31062,41.8090574 12.3273652,41.8499441 C12.3313061,41.8595668 12.3333333,41.8698655 12.3333333,41.8802639 L12.3333333,47.3073653 C12.3333333,47.3398384 12.3137037,47.3690899 12.2836531,47.3813971 L10.8522553,47.9676268 C10.8113686,47.984372 10.7646488,47.9648014 10.7479037,47.9239148 C10.7439627,47.9142921 10.7419355,47.9039934 10.7419355,47.893595 L10.7419355,42.4664936 C10.7419355,42.4340205 10.7615652,42.404769 10.7916157,42.3924618 Z" id="矩形" fill="#CBEAFE"></path>
                                    <path d="M13.9744114,43.1924618 L15.4058093,42.606232 C15.4466959,42.5894869 15.4934157,42.6090574 15.5101609,42.6499441 C15.5141018,42.6595668 15.516129,42.6698655 15.516129,42.6802639 L15.516129,46.1073653 C15.516129,46.1398384 15.4964994,46.1690899 15.4664488,46.1813971 L14.035051,46.7676268 C13.9941643,46.784372 13.9474445,46.7648014 13.9306994,46.7239148 C13.9267584,46.7142921 13.9247312,46.7039934 13.9247312,46.693595 L13.9247312,43.2664936 C13.9247312,43.2340205 13.9443609,43.204769 13.9744114,43.1924618 Z" id="矩形-copy-13" fill="#CBEAFE"></path>
                                    <path d="M17.1572071,38.7924618 L18.588605,38.206232 C18.6294916,38.1894869 18.6762114,38.2090574 18.6929566,38.2499441 C18.6968975,38.2595668 18.6989247,38.2698655 18.6989247,38.2802639 L18.6989247,45.3073653 C18.6989247,45.3398384 18.679295,45.3690899 18.6492445,45.3813971 L17.2178467,45.9676268 C17.17696,45.984372 17.1302402,45.9648014 17.1134951,45.9239148 C17.1095541,45.9142921 17.1075269,45.9039934 17.1075269,45.893595 L17.1075269,38.8664936 C17.1075269,38.8340205 17.1271566,38.804769 17.1572071,38.7924618 Z" id="矩形-copy-14" fill="#CBEAFE"></path>
                                    <path d="M8.50277731,52.4170872 L20.0318096,48.5533035 C20.4507372,48.4129061 20.9041598,48.6386995 21.0445571,49.0576271 C21.0720186,49.1395686 21.0860215,49.2254184 21.0860215,49.3118391 L21.0860215,67.6243771 C21.0860215,67.9682443 20.8662778,68.2736438 20.5402334,68.3829128 L9.01120119,72.2466965 C8.59227353,72.3870939 8.138851,72.1613005 7.99845362,71.7423729 C7.97099216,71.6604314 7.95698925,71.5745816 7.95698925,71.4881609 L7.95698925,53.1756229 C7.95698925,52.8317557 8.17673296,52.5263562 8.50277731,52.4170872 Z" id="矩形-copy-12" fill="#7CC7FF"></path>
                                    <path d="M10.7916157,61.1924618 L12.2230136,60.606232 C12.2639002,60.5894869 12.31062,60.6090574 12.3273652,60.6499441 C12.3313061,60.6595668 12.3333333,60.6698655 12.3333333,60.6802639 L12.3333333,68.5073653 C12.3333333,68.5398384 12.3137037,68.5690899 12.2836531,68.5813971 L10.8522553,69.1676268 C10.8113686,69.184372 10.7646488,69.1648014 10.7479037,69.1239148 C10.7439627,69.1142921 10.7419355,69.1039934 10.7419355,69.093595 L10.7419355,61.2664936 C10.7419355,61.2340205 10.7615652,61.204769 10.7916157,61.1924618 Z" id="矩形-copy-15" fill="#CBEAFE"></path>
                                    <path d="M13.9744114,62.3924618 L15.4058093,61.806232 C15.4466959,61.7894869 15.4934157,61.8090574 15.5101609,61.8499441 C15.5141018,61.8595668 15.516129,61.8698655 15.516129,61.8802639 L15.516129,67.7073653 C15.516129,67.7398384 15.4964994,67.7690899 15.4664488,67.7813971 L14.035051,68.3676268 C13.9941643,68.384372 13.9474445,68.3648014 13.9306994,68.3239148 C13.9267584,68.3142921 13.9247312,68.3039934 13.9247312,68.293595 L13.9247312,62.4664936 C13.9247312,62.4340205 13.9443609,62.404769 13.9744114,62.3924618 Z" id="矩形-copy-16" fill="#CBEAFE"></path>
                                    <path d="M17.1572071,57.5924618 L18.588605,57.006232 C18.6294916,56.9894869 18.6762114,57.0090574 18.6929566,57.0499441 C18.6968975,57.0595668 18.6989247,57.0698655 18.6989247,57.0802639 L18.6989247,66.5073653 C18.6989247,66.5398384 18.679295,66.5690899 18.6492445,66.5813971 L17.2178467,67.1676268 C17.17696,67.184372 17.1302402,67.1648014 17.1134951,67.1239148 C17.1095541,67.1142921 17.1075269,67.1039934 17.1075269,67.093595 L17.1075269,57.6664936 C17.1075269,57.6340205 17.1271566,57.604769 17.1572071,57.5924618 Z" id="矩形-copy-17" fill="#CBEAFE"></path>
                                    <path d="M17.2178467,56.7676268 L18.6492445,56.1813971 C18.679295,56.1690899 18.6989247,56.1398384 18.6989247,56.1073653 L18.6989247,54.6802639 C18.6989247,54.6360811 18.6631075,54.6002639 18.6189247,54.6002639 C18.6085263,54.6002639 18.5982276,54.6022911 18.588605,54.606232 L17.1572071,55.1924618 C17.1271566,55.204769 17.1075269,55.2340205 17.1075269,55.2664936 L17.1075269,56.693595 C17.1075269,56.7377778 17.1433441,56.773595 17.1875269,56.773595 C17.1979253,56.773595 17.208224,56.7715678 17.2178467,56.7676268 Z" id="矩形-copy-17" fill="#CBEAFE"></path>
                                    <path d="M55.5743396,34.1073636 L67.1033719,30.2435798 C67.5222995,30.1031824 67.9757221,30.3289758 68.1161194,30.7479035 C68.1435809,30.8298449 68.1575838,30.9156947 68.1575838,31.0021154 L68.1575838,49.3146535 C68.1575838,49.6585206 67.9378401,49.9639202 67.6117958,50.0731891 L56.0827635,53.9369729 C55.6638358,54.0773702 55.2104133,53.8515768 55.0700159,53.4326492 C55.0425545,53.3507077 55.0285516,53.2648579 55.0285516,53.1784372 L55.0285516,34.8658992 C55.0285516,34.5220321 55.2482953,34.2166325 55.5743396,34.1073636 Z" id="矩形-copy-12" fill="#7CC7FF"></path>
                                    <path d="M57.863178,42.7924618 L59.2945759,42.206232 C59.3354625,42.1894869 59.3821823,42.2090574 59.3989275,42.2499441 C59.4028684,42.2595668 59.4048956,42.2698655 59.4048956,42.2802639 L59.4048956,50.1073653 C59.4048956,50.1398384 59.385266,50.1690899 59.3552154,50.1813971 L57.9238176,50.7676268 C57.8829309,50.784372 57.8362111,50.7648014 57.819466,50.7239148 C57.815525,50.7142921 57.8134978,50.7039934 57.8134978,50.693595 L57.8134978,42.8664936 C57.8134978,42.8340205 57.8331275,42.804769 57.863178,42.7924618 Z" id="矩形-copy-15" fill="#CBEAFE"></path>
                                    <path d="M61.0459737,43.9924618 L62.4773716,43.406232 C62.5182582,43.3894869 62.564978,43.4090574 62.5817232,43.4499441 C62.5856641,43.4595668 62.5876913,43.4698655 62.5876913,43.4802639 L62.5876913,49.3073653 C62.5876913,49.3398384 62.5680617,49.3690899 62.5380111,49.3813971 L61.1066133,49.9676268 C61.0657266,49.984372 61.0190068,49.9648014 61.0022617,49.9239148 C60.9983207,49.9142921 60.9962935,49.9039934 60.9962935,49.893595 L60.9962935,44.0664936 C60.9962935,44.0340205 61.0159232,44.004769 61.0459737,43.9924618 Z" id="矩形-copy-16" fill="#CBEAFE"></path>
                                    <path d="M64.2287694,39.1924618 L65.6601673,38.606232 C65.7010539,38.5894869 65.7477737,38.6090574 65.7645189,38.6499441 C65.7684598,38.6595668 65.770487,38.6698655 65.770487,38.6802639 L65.770487,48.1073653 C65.770487,48.1398384 65.7508574,48.1690899 65.7208068,48.1813971 L64.289409,48.7676268 C64.2485223,48.784372 64.2018025,48.7648014 64.1850574,48.7239148 C64.1811164,48.7142921 64.1790892,48.7039934 64.1790892,48.693595 L64.1790892,39.2664936 C64.1790892,39.2340205 64.1987189,39.204769 64.2287694,39.1924618 Z" id="矩形-copy-17" fill="#CBEAFE"></path>
                                    <path d="M64.289409,40.3676057 L65.7208068,39.781376 C65.7508574,39.7690688 65.770487,39.7398173 65.770487,39.7073441 L65.770487,38.2802428 C65.770487,38.23606 65.7346698,38.2002428 65.690487,38.2002428 C65.6800886,38.2002428 65.6697899,38.20227 65.6601673,38.2062109 L64.2287694,38.7924407 C64.1987189,38.8047479 64.1790892,38.8339994 64.1790892,38.8664725 L64.1790892,40.2935739 C64.1790892,40.3377567 64.2149064,40.3735739 64.2590892,40.3735739 C64.2694876,40.3735739 64.2797863,40.3715467 64.289409,40.3676057 Z" id="矩形-copy-17" fill="#CBEAFE"></path>
                                    <ellipse id="椭圆形" fill="#CBEAFE" transform="translate(58.481848, 21.680809) rotate(-345.000000) translate(-58.481848, -21.680809) " cx="58.4818482" cy="21.680809" rx="2.18896722" ry="2.59906534"></ellipse>
                                </g>
                                <g id="分组" stroke="none" stroke-width="1" fill="none" fill-rule="evenodd" transform="translate(173.500000, 91.000000)">
                                    <polygon id="矩形" fill="#38488E" points="12 9.88888889 23 5.44444444 23 60.5555556 12 65"></polygon>
                                    <g id="矩形-copy-3" transform="translate(1.000000, 5.444444)">
                                        <mask id="mask-22" fill="white">
                                            <use xlink:href="#path-21"></use>
                                        </mask>
                                        <use id="Mask" fill="#28356D" transform="translate(5.500000, 29.777778) scale(-1, 1) translate(-5.500000, -29.777778) " xlink:href="#path-21"></use>
                                        <path d="M-0.690257924,21.1660313 L7.10974208,25.0266374 C7.65498129,25.2965032 8,25.8522366 8,26.4606061 L8,60.112318 C8,60.9959736 7.2836556,61.712318 6.4,61.712318 C6.1537961,61.712318 5.91091335,61.6554999 5.69025792,61.5462866 L-2.10974208,57.6856806 C-2.65498129,57.4158147 -3,56.8600813 -3,56.2517119 L-3,22.6 C-3,21.7163444 -2.2836556,21 -1.4,21 C-1.1537961,21 -0.910913355,21.056818 -0.690257924,21.1660313 Z" fill="#192B5B" mask="url(#mask-22)"></path>
                                    </g>
                                    <path d="M1.46529301,4.71422418 L11.3468538,0.292279382 C11.7624503,0.106302218 12.2375974,0.10619568 12.6532772,0.291986455 L22.5470631,4.71407772 C22.9504335,4.89436672 23.1312767,5.36751615 22.9509877,5.77088655 C22.870642,5.95064821 22.7268247,6.09446554 22.5470631,6.17481117 L12.6532772,10.5969024 C12.2375974,10.7826932 11.7624503,10.7825867 11.3468538,10.5966095 L1.46529301,6.1746647 C1.06200349,5.99419484 0.881372482,5.52096436 1.06184235,5.11767484 C1.14216757,4.93817497 1.28579314,4.7945494 1.46529301,4.71422418 Z" id="矩形" fill="#7685EB"></path>
                                </g>
                                <g id="分组" stroke="none" stroke-width="1" fill="none" fill-rule="evenodd" transform="translate(157.000000, 118.000000)">
                                    <polygon id="矩形" fill="#38488E" points="12 9.88888889 23 5.44444444 23 40.5555556 12 45"></polygon>
                                    <g id="矩形-copy-3" transform="translate(1.000000, 5.444444)">
                                        <mask id="mask-24" fill="white">
                                            <use xlink:href="#path-23"></use>
                                        </mask>
                                        <use id="Mask" fill="#28356D" transform="translate(5.500000, 19.777778) scale(-1, 1) translate(-5.500000, -19.777778) " xlink:href="#path-23"></use>
                                        <path d="M-0.690257924,17.1660313 L7.10974208,21.0266374 C7.65498129,21.2965032 8,21.8522366 8,22.4606061 L8,51.112318 C8,51.9959736 7.2836556,52.712318 6.4,52.712318 C6.1537961,52.712318 5.91091336,52.6554999 5.69025792,52.5462866 L-2.10974208,48.6856806 C-2.65498129,48.4158147 -3,47.8600813 -3,47.2517119 L-3,18.6 C-3,17.7163444 -2.2836556,17 -1.4,17 C-1.1537961,17 -0.910913355,17.056818 -0.690257924,17.1660313 Z" fill="#192B5B" mask="url(#mask-24)"></path>
                                    </g>
                                    <path d="M1.46529301,4.71422418 L11.3468538,0.292279382 C11.7624503,0.106302218 12.2375974,0.10619568 12.6532772,0.291986455 L22.5470631,4.71407772 C22.9504335,4.89436672 23.1312767,5.36751615 22.9509877,5.77088655 C22.870642,5.95064821 22.7268247,6.09446554 22.5470631,6.17481117 L12.6532772,10.5969024 C12.2375974,10.7826932 11.7624503,10.7825867 11.3468538,10.5966095 L1.46529301,6.1746647 C1.06200349,5.99419484 0.881372482,5.52096436 1.06184235,5.11767484 C1.14216757,4.93817497 1.28579314,4.7945494 1.46529301,4.71422418 Z" id="矩形" fill="#7685EB"></path>
                                </g>
                                <g id="分组" stroke="none" stroke-width="1" fill="none" fill-rule="evenodd" transform="translate(140.000000, 141.000000)">
                                    <polygon id="矩形" fill="#38488E" points="12 9.88888889 23 5.44444444 23 24.5555556 12 29"></polygon>
                                    <g id="矩形-copy-3" transform="translate(1.000000, 5.444444)">
                                        <mask id="mask-26" fill="white">
                                            <use xlink:href="#path-25"></use>
                                        </mask>
                                        <use id="Mask" fill="#28356D" transform="translate(5.500000, 11.777778) scale(-1, 1) translate(-5.500000, -11.777778) " xlink:href="#path-25"></use>
                                    </g>
                                    <path d="M1.46529301,4.71422418 L11.3468538,0.292279382 C11.7624503,0.106302218 12.2375974,0.10619568 12.6532772,0.291986455 L22.5470631,4.71407772 C22.9504335,4.89436672 23.1312767,5.36751615 22.9509877,5.77088655 C22.870642,5.95064821 22.7268247,6.09446554 22.5470631,6.17481117 L12.6532772,10.5969024 C12.2375974,10.7826932 11.7624503,10.7825867 11.3468538,10.5966095 L1.46529301,6.1746647 C1.06200349,5.99419484 0.881372482,5.52096436 1.06184235,5.11767484 C1.14216757,4.93817497 1.28579314,4.7945494 1.46529301,4.71422418 Z" id="矩形" fill="#7685EB"></path>
                                </g>
                            </g>
                        </g>
                    </g>
                </g>
            </g>
        </g>
    </g>
</svg>